<?xml version="1.0" encoding="UTF-8"?>
<svg id="Layer_1" data-name="Layer 1" xmlns="http://www.w3.org/2000/svg" viewBox="0 0 1080 1080">
  <defs>
    <style>
      .cls-1 {
        fill: #0c42d3;
      }

      .cls-2 {
        fill: #ffc600;
      }
    </style>
  </defs>
  <rect class="cls-1" x="210.58" y="210.58" width="658.85" height="658.85" rx="194.94" ry="194.94"/>
  <path class="cls-2" d="M749.2,418.15l-.26-.26v-21.56h-15.85c-1.86,0-3.7.12-5.55.16l-38.77-38.77-59.69,59.69c-33.72,14.18-63.92,34.9-89.07,60.09-25.12-25.15-55.28-45.84-88.95-60.02l-59.79-59.79-38.83,38.83c-1.83-.04-3.65-.16-5.49-.16h-15.85v21.5l-.28.28.28.28v61.18h15.85c18.39,0,36.12,2.75,52.95,7.62l88.78,60.72v174.39h48.5s54.18,0,54.18,0v-174.37l88.84-60.78c16.81-4.86,34.53-7.61,52.9-7.61h15.85v-61.15l.26-.26Z"/>
</svg>